<?xml version="1.0" encoding="UTF-8" standalone="no"?>
<!DOCTYPE svg PUBLIC "-//W3C//DTD SVG 1.1//EN"
 "http://www.w3.org/Graphics/SVG/1.1/DTD/svg11.dtd">
<!-- Generated by graphviz version 12.0.0 (20240803.0821)
 -->
<!-- Pages: 1 -->
<svg width="2629pt" height="3203pt"
 viewBox="18.00 18.00 613.00 750.68" xmlns="http://www.w3.org/2000/svg" xmlns:xlink="http://www.w3.org/1999/xlink">
<g id="graph0" class="graph" transform="scale(4.10883 4.10883) rotate(0) translate(22.25 757.25)">
<polygon fill="white" stroke="none" points="-4,4 -4,-739 599.38,-739 599.38,4 -4,4"/>
<!-- Interviewer -->
<g id="node1" class="node">
<title>Interviewer</title>
<ellipse fill="#f5f5f5" stroke="black" cx="126.38" cy="-710.25" rx="75.48" ry="24.75"/>
<text text-anchor="middle" x="126.38" y="-713.3" font-family="Helvetica,sans-Serif" font-size="11.00">Interviewer</text>
<text text-anchor="middle" x="126.38" y="-699.8" font-family="Helvetica,sans-Serif" font-size="11.00">(External Entity)</text>
</g>
<!-- WebUI -->
<g id="node3" class="node">
<title>WebUI</title>
<polygon fill="none" stroke="black" stroke-dasharray="5,2" points="242.5,-638.25 239.5,-642.25 218.5,-642.25 215.5,-638.25 110.25,-638.25 110.25,-602.25 242.5,-602.25 242.5,-638.25"/>
<text text-anchor="middle" x="176.38" y="-623.3" font-family="Helvetica,sans-Serif" font-size="11.00">Web UI Layer</text>
<text text-anchor="middle" x="176.38" y="-609.8" font-family="Helvetica,sans-Serif" font-size="11.00">(Recording Interface)</text>
</g>
<!-- Interviewer&#45;&gt;WebUI -->
<g id="edge1" class="edge">
<title>Interviewer&#45;&gt;WebUI</title>
<path fill="none" stroke="black" d="M139.77,-685.67C146.31,-674.17 154.2,-660.28 160.98,-648.35"/>
<polygon fill="black" stroke="black" points="163.94,-650.21 165.84,-639.79 157.86,-646.76 163.94,-650.21"/>
<text text-anchor="middle" x="168.12" y="-658.95" font-family="Helvetica,sans-Serif" font-size="9.00">Audio</text>
</g>
<!-- Candidate -->
<g id="node2" class="node">
<title>Candidate</title>
<ellipse fill="#f5f5f5" stroke="black" cx="295.38" cy="-710.25" rx="75.48" ry="24.75"/>
<text text-anchor="middle" x="295.38" y="-713.3" font-family="Helvetica,sans-Serif" font-size="11.00">Candidate</text>
<text text-anchor="middle" x="295.38" y="-699.8" font-family="Helvetica,sans-Serif" font-size="11.00">(External Entity)</text>
</g>
<!-- Candidate&#45;&gt;WebUI -->
<g id="edge2" class="edge">
<title>Candidate&#45;&gt;WebUI</title>
<path fill="none" stroke="black" d="M265.65,-687.27C248.3,-674.44 226.4,-658.24 208.63,-645.1"/>
<polygon fill="black" stroke="black" points="211.1,-642.57 200.97,-639.44 206.93,-648.2 211.1,-642.57"/>
<text text-anchor="middle" x="262" y="-658.95" font-family="Helvetica,sans-Serif" font-size="9.00">Audio/Video</text>
</g>
<!-- MediaStorage -->
<g id="node4" class="node">
<title>MediaStorage</title>
<polygon fill="none" stroke="black" stroke-dasharray="5,2" points="224.12,-555 221.12,-559 200.12,-559 197.12,-555 128.62,-555 128.62,-519 224.12,-519 224.12,-555"/>
<text text-anchor="middle" x="176.38" y="-533.3" font-family="Helvetica,sans-Serif" font-size="11.00">Media Storage</text>
</g>
<!-- WebUI&#45;&gt;MediaStorage -->
<g id="edge3" class="edge">
<title>WebUI&#45;&gt;MediaStorage</title>
<path fill="none" stroke="black" d="M176.38,-602.02C176.38,-591.75 176.38,-578.45 176.38,-566.64"/>
<polygon fill="black" stroke="black" points="179.88,-567 176.38,-557 172.88,-567 179.88,-567"/>
<text text-anchor="middle" x="210.12" y="-575.7" font-family="Helvetica,sans-Serif" font-size="9.00">Recording Files</text>
</g>
<!-- IntAudio -->
<g id="node5" class="node">
<title>IntAudio</title>
<polygon fill="white" stroke="black" points="100.75,-482 0,-482 0,-446 106.75,-446 106.75,-476 100.75,-482"/>
<polyline fill="none" stroke="black" points="100.75,-482 100.75,-476"/>
<polyline fill="none" stroke="black" points="106.75,-476 100.75,-476"/>
<text text-anchor="middle" x="53.38" y="-461.27" font-family="Helvetica,sans-Serif" font-size="8.00">interviewer_audio.wav</text>
</g>
<!-- MediaStorage&#45;&gt;IntAudio -->
<g id="edge4" class="edge">
<title>MediaStorage&#45;&gt;IntAudio</title>
<path fill="none" stroke="black" d="M146.29,-518.63C127.23,-507.63 102.66,-493.45 83.58,-482.44"/>
</g>
<!-- CandAudio -->
<g id="node6" class="node">
<title>CandAudio</title>
<polygon fill="white" stroke="black" points="221.5,-482 125.25,-482 125.25,-446 227.5,-446 227.5,-476 221.5,-482"/>
<polyline fill="none" stroke="black" points="221.5,-482 221.5,-476"/>
<polyline fill="none" stroke="black" points="227.5,-476 221.5,-476"/>
<text text-anchor="middle" x="176.38" y="-461.27" font-family="Helvetica,sans-Serif" font-size="8.00">candidate_audio.wav</text>
</g>
<!-- MediaStorage&#45;&gt;CandAudio -->
<g id="edge5" class="edge">
<title>MediaStorage&#45;&gt;CandAudio</title>
<path fill="none" stroke="black" d="M176.38,-518.81C176.38,-507.65 176.38,-493.16 176.38,-482.03"/>
</g>
<!-- CandVideo -->
<g id="node7" class="node">
<title>CandVideo</title>
<polygon fill="white" stroke="black" points="342.88,-482 245.88,-482 245.88,-446 348.88,-446 348.88,-476 342.88,-482"/>
<polyline fill="none" stroke="black" points="342.88,-482 342.88,-476"/>
<polyline fill="none" stroke="black" points="348.88,-476 342.88,-476"/>
<text text-anchor="middle" x="297.38" y="-461.27" font-family="Helvetica,sans-Serif" font-size="8.00">candidate_video.mp4</text>
</g>
<!-- MediaStorage&#45;&gt;CandVideo -->
<g id="edge6" class="edge">
<title>MediaStorage&#45;&gt;CandVideo</title>
<path fill="none" stroke="black" d="M205.97,-518.63C224.73,-507.63 248.89,-493.45 267.66,-482.44"/>
</g>
<!-- Pipeline -->
<g id="node8" class="node">
<title>Pipeline</title>
<polygon fill="none" stroke="black" stroke-dasharray="5,2" points="241.38,-401 238.38,-405 217.38,-405 214.38,-401 111.38,-401 111.38,-365 241.38,-365 241.38,-401"/>
<text text-anchor="middle" x="176.38" y="-386.05" font-family="Helvetica,sans-Serif" font-size="11.00">Backend Pipeline</text>
<text text-anchor="middle" x="176.38" y="-372.55" font-family="Helvetica,sans-Serif" font-size="11.00">(6&#45;Stage Processing)</text>
</g>
<!-- IntAudio&#45;&gt;Pipeline -->
<g id="edge7" class="edge">
<title>IntAudio&#45;&gt;Pipeline</title>
<path fill="none" stroke="black" d="M80.37,-445.66C97.83,-434.45 120.78,-419.7 139.87,-407.45"/>
<polygon fill="black" stroke="black" points="141.65,-410.46 148.17,-402.11 137.87,-404.57 141.65,-410.46"/>
</g>
<!-- CandAudio&#45;&gt;Pipeline -->
<g id="edge8" class="edge">
<title>CandAudio&#45;&gt;Pipeline</title>
<path fill="none" stroke="black" d="M176.38,-445.86C176.38,-436.19 176.38,-423.87 176.38,-412.76"/>
<polygon fill="black" stroke="black" points="179.88,-412.89 176.38,-402.89 172.88,-412.89 179.88,-412.89"/>
</g>
<!-- CandVideo&#45;&gt;Pipeline -->
<g id="edge9" class="edge">
<title>CandVideo&#45;&gt;Pipeline</title>
<path fill="none" stroke="black" d="M270.82,-445.66C253.64,-434.45 231.06,-419.7 212.29,-407.45"/>
<polygon fill="black" stroke="black" points="214.42,-404.66 204.13,-402.12 210.59,-410.52 214.42,-404.66"/>
</g>
<!-- Stage0 -->
<g id="node10" class="node">
<title>Stage0</title>
<path fill="white" stroke="black" d="M84.38,-328C84.38,-328 54.38,-328 54.38,-328 48.38,-328 42.38,-322 42.38,-316 42.38,-316 42.38,-304 42.38,-304 42.38,-298 48.38,-292 54.38,-292 54.38,-292 84.38,-292 84.38,-292 90.38,-292 96.38,-298 96.38,-304 96.38,-304 96.38,-316 96.38,-316 96.38,-322 90.38,-328 84.38,-328"/>
<text text-anchor="middle" x="69.38" y="-312.35" font-family="Helvetica,sans-Serif" font-size="7.00">Stage 0</text>
<text text-anchor="middle" x="69.38" y="-303.35" font-family="Helvetica,sans-Serif" font-size="7.00">Timebase</text>
</g>
<!-- Pipeline&#45;&gt;Stage0 -->
<g id="edge21" class="edge">
<title>Pipeline&#45;&gt;Stage0</title>
<path fill="none" stroke="black" d="M150.2,-364.63C136.6,-355.61 119.78,-344.44 105.01,-334.64"/>
<polygon fill="black" stroke="black" points="107.18,-331.88 96.91,-329.27 103.31,-337.72 107.18,-331.88"/>
</g>
<!-- JD -->
<g id="node9" class="node">
<title>JD</title>
<polygon fill="#fffde7" stroke="black" points="446.25,-476 366.5,-476 366.5,-452 446.25,-452 458.25,-464 446.25,-476"/>
<text text-anchor="middle" x="412.38" y="-466.7" font-family="Helvetica,sans-Serif" font-size="9.00">JD</text>
<text text-anchor="middle" x="412.38" y="-455.45" font-family="Helvetica,sans-Serif" font-size="9.00">(Job Description)</text>
</g>
<!-- JD&#45;&gt;Pipeline -->
<g id="edge10" class="edge">
<title>JD&#45;&gt;Pipeline</title>
<path fill="none" stroke="black" stroke-dasharray="5,2" d="M366.03,-447.49C329.76,-435.34 278.94,-418.33 239.04,-404.98"/>
<polygon fill="black" stroke="black" points="240.39,-401.74 229.8,-401.88 238.17,-408.38 240.39,-401.74"/>
<text text-anchor="middle" x="310.75" y="-421.35" font-family="Helvetica,sans-Serif" font-size="7.00">input</text>
</g>
<!-- Stage1 -->
<g id="node11" class="node">
<title>Stage1</title>
<path fill="white" stroke="black" d="M174.38,-328C174.38,-328 144.38,-328 144.38,-328 138.38,-328 132.38,-322 132.38,-316 132.38,-316 132.38,-304 132.38,-304 132.38,-298 138.38,-292 144.38,-292 144.38,-292 174.38,-292 174.38,-292 180.38,-292 186.38,-298 186.38,-304 186.38,-304 186.38,-316 186.38,-316 186.38,-322 180.38,-328 174.38,-328"/>
<text text-anchor="middle" x="159.38" y="-312.35" font-family="Helvetica,sans-Serif" font-size="7.00">Stage 1</text>
<text text-anchor="middle" x="159.38" y="-303.35" font-family="Helvetica,sans-Serif" font-size="7.00">Extraction</text>
</g>
<!-- Stage0&#45;&gt;Stage1 -->
<!-- Stage0&#45;&gt;Stage1 -->
<g id="edge16" class="edge">
<title>Stage0&#45;&gt;Stage1</title>
<path fill="none" stroke="black" d="M96.8,-321.44C104.77,-323.31 112.75,-323.91 120.72,-323.23"/>
<polygon fill="black" stroke="black" points="121.18,-326.7 130.5,-321.67 120.08,-319.79 121.18,-326.7"/>
</g>
<!-- Stage2 -->
<g id="node12" class="node">
<title>Stage2</title>
<path fill="white" stroke="black" d="M264.38,-328C264.38,-328 234.38,-328 234.38,-328 228.38,-328 222.38,-322 222.38,-316 222.38,-316 222.38,-304 222.38,-304 222.38,-298 228.38,-292 234.38,-292 234.38,-292 264.38,-292 264.38,-292 270.38,-292 276.38,-298 276.38,-304 276.38,-304 276.38,-316 276.38,-316 276.38,-322 270.38,-328 264.38,-328"/>
<text text-anchor="middle" x="249.38" y="-312.35" font-family="Helvetica,sans-Serif" font-size="7.00">Stage 2</text>
<text text-anchor="middle" x="249.38" y="-303.35" font-family="Helvetica,sans-Serif" font-size="7.00">Temporal</text>
</g>
<!-- Stage1&#45;&gt;Stage2 -->
<!-- Stage1&#45;&gt;Stage2 -->
<g id="edge17" class="edge">
<title>Stage1&#45;&gt;Stage2</title>
<path fill="none" stroke="black" d="M186.8,-321.44C194.77,-323.31 202.75,-323.91 210.72,-323.23"/>
<polygon fill="black" stroke="black" points="211.18,-326.7 220.5,-321.67 210.08,-319.79 211.18,-326.7"/>
</g>
<!-- Stage3 -->
<g id="node13" class="node">
<title>Stage3</title>
<path fill="white" stroke="black" d="M354.38,-328C354.38,-328 324.38,-328 324.38,-328 318.38,-328 312.38,-322 312.38,-316 312.38,-316 312.38,-304 312.38,-304 312.38,-298 318.38,-292 324.38,-292 324.38,-292 354.38,-292 354.38,-292 360.38,-292 366.38,-298 366.38,-304 366.38,-304 366.38,-316 366.38,-316 366.38,-322 360.38,-328 354.38,-328"/>
<text text-anchor="middle" x="339.38" y="-312.35" font-family="Helvetica,sans-Serif" font-size="7.00">Stage 3</text>
<text text-anchor="middle" x="339.38" y="-303.35" font-family="Helvetica,sans-Serif" font-size="7.00">Behavior</text>
</g>
<!-- Stage2&#45;&gt;Stage3 -->
<!-- Stage2&#45;&gt;Stage3 -->
<g id="edge18" class="edge">
<title>Stage2&#45;&gt;Stage3</title>
<path fill="none" stroke="black" d="M276.8,-321.44C284.77,-323.31 292.75,-323.91 300.72,-323.23"/>
<polygon fill="black" stroke="black" points="301.18,-326.7 310.5,-321.67 300.08,-319.79 301.18,-326.7"/>
</g>
<!-- Stage4 -->
<g id="node14" class="node">
<title>Stage4</title>
<path fill="white" stroke="black" d="M444.38,-328C444.38,-328 414.38,-328 414.38,-328 408.38,-328 402.38,-322 402.38,-316 402.38,-316 402.38,-304 402.38,-304 402.38,-298 408.38,-292 414.38,-292 414.38,-292 444.38,-292 444.38,-292 450.38,-292 456.38,-298 456.38,-304 456.38,-304 456.38,-316 456.38,-316 456.38,-322 450.38,-328 444.38,-328"/>
<text text-anchor="middle" x="429.38" y="-312.35" font-family="Helvetica,sans-Serif" font-size="7.00">Stage 4</text>
<text text-anchor="middle" x="429.38" y="-303.35" font-family="Helvetica,sans-Serif" font-size="7.00">Semantic</text>
</g>
<!-- Stage3&#45;&gt;Stage4 -->
<!-- Stage3&#45;&gt;Stage4 -->
<g id="edge19" class="edge">
<title>Stage3&#45;&gt;Stage4</title>
<path fill="none" stroke="black" d="M366.8,-321.44C374.77,-323.31 382.75,-323.91 390.72,-323.23"/>
<polygon fill="black" stroke="black" points="391.18,-326.7 400.5,-321.67 390.08,-319.79 391.18,-326.7"/>
</g>
<!-- Stage5 -->
<g id="node15" class="node">
<title>Stage5</title>
<path fill="white" stroke="black" d="M540.5,-328C540.5,-328 504.25,-328 504.25,-328 498.25,-328 492.25,-322 492.25,-316 492.25,-316 492.25,-304 492.25,-304 492.25,-298 498.25,-292 504.25,-292 504.25,-292 540.5,-292 540.5,-292 546.5,-292 552.5,-298 552.5,-304 552.5,-304 552.5,-316 552.5,-316 552.5,-322 546.5,-328 540.5,-328"/>
<text text-anchor="middle" x="522.38" y="-312.35" font-family="Helvetica,sans-Serif" font-size="7.00">Stage 5</text>
<text text-anchor="middle" x="522.38" y="-303.35" font-family="Helvetica,sans-Serif" font-size="7.00">Aggregation</text>
</g>
<!-- Stage4&#45;&gt;Stage5 -->
<!-- Stage4&#45;&gt;Stage5 -->
<g id="edge20" class="edge">
<title>Stage4&#45;&gt;Stage5</title>
<path fill="none" stroke="black" d="M456.62,-321.19C464.59,-323.1 472.57,-323.83 480.54,-323.36"/>
<polygon fill="black" stroke="black" points="480.84,-326.85 490.31,-322.11 479.94,-319.91 480.84,-326.85"/>
</g>
<!-- OutputArtifacts -->
<g id="node16" class="node">
<title>OutputArtifacts</title>
<polygon fill="none" stroke="black" stroke-dasharray="5,2" points="566.62,-255 563.62,-259 542.62,-259 539.62,-255 462.12,-255 462.12,-219 566.62,-219 566.62,-255"/>
<text text-anchor="middle" x="514.38" y="-240.05" font-family="Helvetica,sans-Serif" font-size="11.00">Output Artifacts</text>
<text text-anchor="middle" x="514.38" y="-226.55" font-family="Helvetica,sans-Serif" font-size="11.00">(JSON)</text>
</g>
<!-- Stage5&#45;&gt;OutputArtifacts -->
<g id="edge22" class="edge">
<title>Stage5&#45;&gt;OutputArtifacts</title>
<path fill="none" stroke="black" d="M520.44,-291.81C519.57,-284.14 518.53,-274.89 517.56,-266.24"/>
<polygon fill="black" stroke="black" points="521.06,-266.08 516.46,-256.53 514.1,-266.86 521.06,-266.08"/>
</g>
<!-- JsonFiles -->
<g id="node17" class="node">
<title>JsonFiles</title>
<path fill="#fff3e0" stroke="black" d="M502.75,-182C502.75,-182 426,-182 426,-182 420,-182 414,-176 414,-170 414,-170 414,-158 414,-158 414,-152 420,-146 426,-146 426,-146 502.75,-146 502.75,-146 508.75,-146 514.75,-152 514.75,-158 514.75,-158 514.75,-170 514.75,-170 514.75,-176 508.75,-182 502.75,-182"/>
<text text-anchor="middle" x="464.38" y="-160.88" font-family="Helvetica,sans-Serif" font-size="10.00">JSON Output Files</text>
</g>
<!-- OutputArtifacts&#45;&gt;JsonFiles -->
<g id="edge23" class="edge">
<title>OutputArtifacts&#45;&gt;JsonFiles</title>
<path fill="none" stroke="black" d="M502.27,-218.81C496.44,-210.53 489.31,-200.41 482.82,-191.19"/>
<polygon fill="black" stroke="black" points="485.86,-189.43 477.24,-183.27 480.13,-193.46 485.86,-189.43"/>
</g>
<!-- Dashboard -->
<g id="node18" class="node">
<title>Dashboard</title>
<path fill="#e3f2fd" stroke="black" d="M468.62,-109C468.62,-109 412.12,-109 412.12,-109 406.12,-109 400.12,-103 400.12,-97 400.12,-97 400.12,-85 400.12,-85 400.12,-79 406.12,-73 412.12,-73 412.12,-73 468.62,-73 468.62,-73 474.62,-73 480.62,-79 480.62,-85 480.62,-85 480.62,-97 480.62,-97 480.62,-103 474.62,-109 468.62,-109"/>
<text text-anchor="middle" x="440.38" y="-87.5" font-family="Helvetica Bold" font-size="10.00">Dashboard UI</text>
</g>
<!-- JsonFiles&#45;&gt;Dashboard -->
<g id="edge24" class="edge">
<title>JsonFiles&#45;&gt;Dashboard</title>
<path fill="none" stroke="black" d="M458.57,-145.81C455.91,-137.96 452.7,-128.47 449.72,-119.66"/>
<polygon fill="black" stroke="black" points="453.13,-118.82 446.62,-110.46 446.5,-121.06 453.13,-118.82"/>
</g>
<!-- Page1 -->
<g id="node19" class="node">
<title>Page1</title>
<path fill="white" stroke="black" d="M360.88,-36C360.88,-36 269.88,-36 269.88,-36 263.88,-36 257.88,-30 257.88,-24 257.88,-24 257.88,-12 257.88,-12 257.88,-6 263.88,0 269.88,0 269.88,0 360.88,0 360.88,0 366.88,0 372.88,-6 372.88,-12 372.88,-12 372.88,-24 372.88,-24 372.88,-30 366.88,-36 360.88,-36"/>
<text text-anchor="middle" x="315.38" y="-20.15" font-family="Helvetica,sans-Serif" font-size="8.00">Page 1:</text>
<text text-anchor="middle" x="315.38" y="-10.4" font-family="Helvetica,sans-Serif" font-size="8.00">Temporal Evidence View</text>
</g>
<!-- Dashboard&#45;&gt;Page1 -->
<g id="edge25" class="edge">
<title>Dashboard&#45;&gt;Page1</title>
<path fill="none" stroke="black" d="M409.8,-72.63C393.6,-63.43 373.5,-52.02 356.02,-42.08"/>
<polygon fill="black" stroke="black" points="357.81,-39.08 347.39,-37.18 354.35,-45.17 357.81,-39.08"/>
</g>
<!-- Page2 -->
<g id="node20" class="node">
<title>Page2</title>
<path fill="white" stroke="black" d="M453.62,-36C453.62,-36 403.12,-36 403.12,-36 397.12,-36 391.12,-30 391.12,-24 391.12,-24 391.12,-12 391.12,-12 391.12,-6 397.12,0 403.12,0 403.12,0 453.62,0 453.62,0 459.62,0 465.62,-6 465.62,-12 465.62,-12 465.62,-24 465.62,-24 465.62,-30 459.62,-36 453.62,-36"/>
<text text-anchor="middle" x="428.38" y="-20.15" font-family="Helvetica,sans-Serif" font-size="8.00">Page 2:</text>
<text text-anchor="middle" x="428.38" y="-10.4" font-family="Helvetica,sans-Serif" font-size="8.00">Analytics View</text>
</g>
<!-- Dashboard&#45;&gt;Page2 -->
<g id="edge26" class="edge">
<title>Dashboard&#45;&gt;Page2</title>
<path fill="none" stroke="black" d="M437.47,-72.81C436.17,-65.14 434.61,-55.89 433.15,-47.24"/>
<polygon fill="black" stroke="black" points="436.62,-46.8 431.51,-37.52 429.72,-47.96 436.62,-46.8"/>
</g>
<!-- Page3 -->
<g id="node21" class="node">
<title>Page3</title>
<path fill="white" stroke="black" d="M583.38,-36C583.38,-36 495.38,-36 495.38,-36 489.38,-36 483.38,-30 483.38,-24 483.38,-24 483.38,-12 483.38,-12 483.38,-6 489.38,0 495.38,0 495.38,0 583.38,0 583.38,0 589.38,0 595.38,-6 595.38,-12 595.38,-12 595.38,-24 595.38,-24 595.38,-30 589.38,-36 583.38,-36"/>
<text text-anchor="middle" x="539.38" y="-20.15" font-family="Helvetica,sans-Serif" font-size="8.00">Page 3:</text>
<text text-anchor="middle" x="539.38" y="-10.4" font-family="Helvetica,sans-Serif" font-size="8.00">Pipeline Execution View</text>
</g>
<!-- Dashboard&#45;&gt;Page3 -->
<g id="edge27" class="edge">
<title>Dashboard&#45;&gt;Page3</title>
<path fill="none" stroke="black" d="M464.59,-72.63C477.06,-63.69 492.45,-52.66 506.02,-42.92"/>
<polygon fill="black" stroke="black" points="507.75,-45.99 513.83,-37.32 503.67,-40.3 507.75,-45.99"/>
</g>
</g>
</svg>
